<?xml version="1.0" encoding="UTF-8"?>
<svg width="65px" height="65px" viewBox="0 0 65 65" version="1.1" xmlns="http://www.w3.org/2000/svg" xmlns:xlink="http://www.w3.org/1999/xlink">
    <!-- Generator: Sketch 63.1 (92452) - https://sketch.com -->
    <title>dbsubnetgroup.icon</title>
    <desc>Created with Sketch.</desc>
    <defs>
        <linearGradient x1="100%" y1="0%" x2="0%" y2="100%" id="linearGradient-1">
            <stop stop-color="#2DB5DE" offset="0%"></stop>
            <stop stop-color="#147EBA" offset="100%"></stop>
        </linearGradient>
    </defs>
    <g id="dbsubnetgroup.icon" stroke="none" stroke-width="1" fill="none" fill-rule="evenodd">
        <g id="Pad-lock-icon-Copy-2" fill-rule="nonzero">
            <rect id="Rectangle" stroke="#147EBA" fill="url(#linearGradient-1)" x="0.5" y="0.5" width="64" height="64" rx="16"></rect>
            <g id="download" transform="translate(19.000000, 15.000000)" fill="#FFFFFF">
                <path d="M13.6585366,17.9269046 C11.6971796,17.9146925 10.0456905,19.3877539 9.83863782,21.334176 C9.63158513,23.2805981 10.9363622,25.0668422 12.8565907,25.4657636 L12.8565907,30.7317073 L14.4604825,30.7317073 L14.4604825,25.4657636 C16.380711,25.0668422 17.685488,23.2805981 17.4784354,21.334176 C17.2713827,19.3877539 15.6198936,17.9146925 13.6585366,17.9269046 L13.6585366,17.9269046 Z M13.6585366,23.9452024 C12.7633117,23.9452024 11.9562364,23.4070418 11.6136487,22.5816641 C11.2710609,21.7562864 11.4604275,20.8062355 12.0934471,20.1745188 C12.7264667,19.542802 13.6784769,19.3538252 14.5055569,19.6957078 C15.3326369,20.0375905 15.8719073,20.8430047 15.8719073,21.7363871 C15.8719073,22.9562821 14.8809475,23.9452024 13.6585366,23.9452024 L13.6585366,23.9452024 Z" id="Shape"></path>
                <path d="M22.186953,12.4504058 L22.186953,8.23715059 C22.186953,3.68789794 18.3686509,0 13.6585366,0 C8.94842228,0 5.1301202,3.68789794 5.1301202,8.23715059 L5.1301202,12.4504058 L0,12.4504058 L0,35 L27.3170732,35 L27.3170732,12.4504058 L22.186953,12.4504058 Z M6.76391644,8.23715059 C6.76391644,5.85806455 8.07802356,3.65969837 10.2112265,2.47015533 C12.3444294,1.2806123 14.9726438,1.2806123 17.1058467,2.47015533 C19.2390496,3.65969837 20.5531567,5.85806455 20.5531567,8.23715059 L20.5531567,12.4504058 L6.76391644,12.4504058 L6.76391644,8.23715059 Z M25.6832769,33.4851217 L1.63379624,33.4851217 L1.63379624,14.028404 L25.6832769,14.028404 L25.6832769,33.4851217 Z" id="Shape"></path>
            </g>
        </g>
    </g>
</svg>