<?xml version="1.0" encoding="UTF-8"?>
<svg width="65px" height="65px" viewBox="0 0 65 65" version="1.1" xmlns="http://www.w3.org/2000/svg" xmlns:xlink="http://www.w3.org/1999/xlink">
    <!-- Generator: Sketch 63.1 (92452) - https://sketch.com -->
    <title>eksclusterclass.icon</title>
    <desc>Created with Sketch.</desc>
    <defs>
        <linearGradient x1="-20.7066667%" y1="120.706667%" x2="120.706667%" y2="-20.7066667%" id="linearGradient-1">
            <stop stop-color="#C8511B" offset="0%"></stop>
            <stop stop-color="#FF9900" offset="100%"></stop>
        </linearGradient>
    </defs>
    <g id="eksclusterclass.icon" stroke="none" stroke-width="1" fill="none" fill-rule="evenodd">
        <g id="EKS-cluster-icon-Copy" fill-rule="nonzero">
            <rect id="Orange_Gradient" stroke="#C8511B" fill="url(#linearGradient-1)" x="0.5" y="0.5" width="64" height="64" rx="16"></rect>
            <g id="Icon_Test" transform="translate(17.000000, 15.000000)" fill="#FFFFFF">
                <path d="M15.5909091,34.688197 C15.4794332,34.6889517 15.3697109,34.6604239 15.2727273,34.6054545 L0.636363636,26.1545455 C0.438687332,26.0404194 0.317275632,25.829163 0.318176781,25.6009091 L0.318176781,8.69909091 C0.317275632,8.47083697 0.438687332,8.25958061 0.636363636,8.14545455 L14,0.394545455 C14.1968916,0.28087004 14.439472,0.28087004 14.6363636,0.394545455 C14.8340399,0.508671524 14.9554516,0.719927881 14.9545455,0.948181818 L14.9545455,8.27272727 C14.9554516,8.50098121 14.8340399,8.71223757 14.6363636,8.82636364 L7.95454545,12.7272727 L7.95454545,21.5536364 L15.5909091,25.9636364 L22.2536364,22.1454545 C22.450528,22.0317791 22.6931084,22.0317791 22.89,22.1454545 L29.2536364,25.8172727 C29.4530157,25.9302662 29.5762398,26.1417374 29.5762398,26.3709091 C29.5762398,26.6000808 29.4530157,26.811552 29.2536364,26.9245455 L15.9090909,34.6054545 C15.8121072,34.6604239 15.702385,34.6889517 15.5909091,34.688197 L15.5909091,34.688197 Z M1.59090909,25.2318182 L15.5909091,33.32 L27.6818182,26.32 L22.5909091,23.38 L15.9090909,27.2554545 C15.7121993,27.36913 15.4696189,27.36913 15.2727273,27.2554545 L7,22.4763636 C6.8023237,22.3622376 6.680912,22.1509812 6.68181818,21.9227273 L6.68181818,12.3772727 C6.680912,12.1490188 6.8023237,11.9377624 7,11.8236364 L13.6818182,7.93545455 L13.6818182,2.04909091 L1.59090909,9.04909091 L1.59090909,25.2318182 Z" id="Shape"></path>
                <path d="M30.2272677,24.7736515 C30.1157968,24.7744063 30.0060746,24.7458785 29.9090909,24.6909091 L23.5454545,21.0318182 C23.3453139,20.9236396 23.2317258,20.7040358 23.2590909,20.4781818 L23.2590909,12.7272727 L16.5454545,8.90909091 C16.3477782,8.79496484 16.2263665,8.58370848 16.2272677,8.35545455 L16.2272677,1.01818182 C16.2263665,0.789927881 16.3477782,0.578671524 16.5454545,0.464545455 C16.7442472,0.358201213 16.9830255,0.358201213 17.1818182,0.464545455 L30.5454545,8.14545455 C30.7431308,8.25958061 30.8645425,8.47083697 30.8636414,8.69909091 L30.8636414,24.1372727 C30.8636414,24.4887267 30.5787267,24.7736515 30.2272677,24.7736515 Z M24.5,20.1154545 L29.5909091,23.03 L29.5909091,9.06818182 L17.5,2.11909091 L17.5,7.99272727 L24.1818182,11.8109091 C24.3775283,11.9238969 24.498636,12.1322021 24.5,12.3581818 L24.5,20.1154545 Z" id="Shape"></path>
                <polygon id="Path" points="12.4090909 21.9481818 12.4090909 12.4027273 13.6818182 12.4027273 13.6818182 16.7490909 17.8181818 12.4027273 19.4981818 12.4027273 15.1836364 17.0481818 19.8736364 21.9481818 18.1363636 21.9481818 13.6818182 17.4936364 13.6818182 21.9481818"></polygon>
            </g>
        </g>
    </g>
</svg>