<?xml version="1.0" encoding="UTF-8"?>
<svg width="65px" height="65px" viewBox="0 0 65 65" version="1.1" xmlns="http://www.w3.org/2000/svg" xmlns:xlink="http://www.w3.org/1999/xlink">
    <!-- Generator: Sketch 63.1 (92452) - https://sketch.com -->
    <title>iamrolepolicyattachment.icon</title>
    <desc>Created with Sketch.</desc>
    <defs>
        <linearGradient x1="100%" y1="0%" x2="0%" y2="100%" id="linearGradient-1">
            <stop stop-color="#D6242D" offset="0%"></stop>
            <stop stop-color="#9F041B" offset="100%"></stop>
        </linearGradient>
    </defs>
    <g id="iamrolepolicyattachment.icon" stroke="none" stroke-width="1" fill="none" fill-rule="evenodd">
        <g id="Key-icon" fill-rule="nonzero">
            <rect id="Orange_Gradient" stroke="#D6242D" fill="url(#linearGradient-1)" x="0.5" y="0.5" width="64" height="64" rx="16"></rect>
            <path d="M22.208385,42.4274979 C17.0556966,42.4247574 12.7120236,38.5841853 12.0782774,33.4706179 C11.4445313,28.3570505 14.7192314,23.572301 19.7153774,22.3118525 C24.7115235,21.051404 29.8640842,23.7100891 31.7319347,28.5123115 L33.6894114,28.5123115 L35.8851896,26.3165333 C36.2171415,25.9865507 36.7532561,25.9865507 37.085208,26.3165333 L39.2809862,28.5123115 L40.2086599,28.5123115 L42.4044381,26.3165333 C42.5650524,26.1572232 42.7824839,26.0684131 43.0087027,26.069721 L43.0087027,26.069721 C43.2319741,26.0706612 43.4459344,26.1593018 43.6044565,26.3165333 L45.8002347,28.5123115 L47.8938837,28.5123115 C48.100757,28.5126092 48.3004395,28.5882465 48.4555944,28.7250807 L51.7152186,31.5761881 C52.0643642,31.8833966 52.1022631,32.4139813 51.8003263,32.7676957 L49.3407143,35.618803 C49.1790074,35.8078593 48.9426757,35.9166963 48.6938959,35.9166799 L31.7319347,35.9166799 C30.216396,39.8531831 26.4265169,42.4441192 22.208385,42.4274979 L22.208385,42.4274979 Z M22.208385,23.7036789 C17.8442286,23.689105 14.1762419,26.9779224 13.716464,31.3178163 C13.2566862,35.6577102 16.1541351,39.6420841 20.4244783,40.5422195 C24.6948216,41.4423549 28.9540045,38.9665101 30.2851041,34.81028 C30.4006357,34.4415006 30.7501324,34.1968529 31.136181,34.2145263 L48.3024006,34.2145263 L49.9449788,32.2996034 L47.5534529,30.2144652 L45.4342716,30.2144652 C45.2080529,30.2157731 44.9906213,30.126963 44.8300071,29.9676529 L42.9916812,28.1208162 L41.1448444,29.9676529 C40.9842302,30.126963 40.7667987,30.2157731 40.5405799,30.2144652 L38.9150232,30.2144652 C38.6888044,30.2157731 38.4713728,30.126963 38.3107586,29.9676529 L36.4724327,28.1208162 L34.6255959,29.9676529 C34.4649817,30.126963 34.2475502,30.2157731 34.0213314,30.2144652 L31.136181,30.2144652 C30.7501324,30.2321386 30.4006357,29.9874909 30.2851041,29.6187114 C29.1597282,26.104691 25.8981896,23.7161037 22.208385,23.7036789 Z M19.9575683,35.9166799 C17.9129085,35.9166799 16.2553841,34.2591556 16.2553841,32.2144957 C16.2553841,30.1698359 17.9129085,28.5123115 19.9575683,28.5123115 C22.0022282,28.5123115 23.6597525,30.1698359 23.6597525,32.2144957 C23.6597525,33.196376 23.2697021,34.1380411 22.5754079,34.8323353 C21.8811137,35.5266295 20.9394486,35.9166799 19.9575683,35.9166799 Z M19.9575683,30.2144652 C19.1486315,30.2144652 18.4193478,30.701757 18.109781,31.4491172 C17.8002143,32.1964774 17.9713284,33.0567262 18.5433332,33.6287309 C19.1153379,34.2007356 19.9755867,34.3718497 20.7229469,34.062283 C21.4703071,33.7527163 21.9575989,33.0234326 21.9575989,32.2144957 C21.9575989,31.1099094 21.0621547,30.2144652 19.9575683,30.2144652 Z" id="Shape" fill="#FFFFFF"></path>
        </g>
    </g>
</svg>