<?xml version="1.0" encoding="UTF-8"?>
<svg width="65px" height="65px" viewBox="0 0 65 65" version="1.1" xmlns="http://www.w3.org/2000/svg" xmlns:xlink="http://www.w3.org/1999/xlink">
    <!-- Generator: Sketch 63.1 (92452) - https://sketch.com -->
    <title>iamrole.icon</title>
    <desc>Created with Sketch.</desc>
    <defs>
        <linearGradient x1="109.131611%" y1="-6.484375%" x2="-7.24459135%" y2="108.293269%" id="linearGradient-1">
            <stop stop-color="#FFB850" offset="0%"></stop>
            <stop stop-color="#993600" offset="100%"></stop>
        </linearGradient>
    </defs>
    <g id="iamrole.icon" stroke="none" stroke-width="1" fill="none" fill-rule="evenodd">
        <rect id="Orange_Gradient" stroke="#993600" fill="url(#linearGradient-1)" fill-rule="nonzero" x="0.5" y="0.5" width="64" height="64" rx="16"></rect>
        <g id="Group-7" transform="translate(11.000000, 23.000000)" stroke="#FFFFFF" stroke-linecap="round" stroke-linejoin="round" stroke-width="2">
            <path d="M41.0753713,16.8564384 L37.3832284,16.6945129 C37.1129068,7.4286976 29.3719466,0 19.8536218,0 C10.8639259,0 3.45936594,6.62716667 2.43589822,15.1679976 L2.3352785,15.1635815 C1.04524363,15.1635815 0,16.1888639 0,17.4540905 L0,17.7109631 C0,18.9754536 1.04524363,20 2.3352785,20 L41.0040364,20 C41.8900907,20 42.6086957,19.2963604 42.6086957,18.4278512 C42.6086957,17.5858389 41.9328916,16.8939756 41.0753713,16.8564384 Z" id="Stroke-1"></path>
            <path d="M33.0434783,16.5217391 C32.8558705,10.248267 27.4800694,5.2173913 20.8695652,5.2173913" id="Stroke-3"></path>
            <line x1="2.60869565" y1="15.6521739" x2="22.6086957" y2="16.5217391" id="Stroke-5"></line>
        </g>
    </g>
</svg>