<?xml version="1.0" encoding="UTF-8"?>
<svg width="65px" height="65px" viewBox="0 0 65 65" version="1.1" xmlns="http://www.w3.org/2000/svg" xmlns:xlink="http://www.w3.org/1999/xlink">
    <!-- Generator: Sketch 63.1 (92452) - https://sketch.com -->
    <title>rdsinstanceclass.icon</title>
    <desc>Created with Sketch.</desc>
    <defs>
        <linearGradient x1="-20.7066667%" y1="120.706667%" x2="120.72%" y2="-20.72%" id="linearGradient-1">
            <stop stop-color="#2E27AD" offset="0%"></stop>
            <stop stop-color="#527FFF" offset="100%"></stop>
        </linearGradient>
    </defs>
    <g id="rdsinstanceclass.icon" stroke="none" stroke-width="1" fill="none" fill-rule="evenodd">
        <g id="download-copy" fill-rule="nonzero">
            <rect id="Blue_Gradient" stroke="#2E27AD" fill="url(#linearGradient-1)" x="0.5" y="0.5" width="64" height="64" rx="16"></rect>
            <g id="Icon_Test" transform="translate(15.000000, 15.000000)" fill="#FFFFFF">
                <path d="M25.0147059,11.1382353 C25.0147059,9.14803922 21.1098039,8.22843137 17.4656863,8.22843137 C13.8215686,8.22843137 9.91666667,9.14803922 9.91666667,11.1382353 C9.91367801,11.2377472 9.92523789,11.3371622 9.95098039,11.4333333 L9.95098039,23.8205882 C9.91666667,25.8794118 13.8284314,26.7578431 17.5,26.7578431 C21.1715686,26.7578431 25.0490196,25.8519608 25.0490196,23.8617647 L25.0490196,11.1382353 L25.0147059,11.1382353 Z M17.4794118,9.60784314 C21.4803922,9.60784314 23.6558824,10.6990196 23.6558824,11.145098 C23.6558824,11.5911765 21.4941176,12.6823529 17.4794118,12.6823529 C13.4647059,12.6823529 11.3029412,11.5980392 11.3029412,11.145098 C11.3029412,10.6921569 13.4784314,9.60784314 17.4794118,9.60784314 Z M23.6558824,23.8686275 C23.6558824,24.3078431 21.4872549,25.3921569 17.4794118,25.3921569 C13.4715686,25.3921569 11.3029412,24.3078431 11.3029412,23.8686275 L11.3029412,21.7 C12.7509804,22.4892157 15.1803922,22.8666667 17.4794118,22.8666667 C19.7784314,22.8666667 22.1872549,22.4960784 23.6558824,21.7205882 L23.6558824,23.8686275 Z M23.6558824,19.9637255 C23.6558824,20.4029412 21.4941176,21.5009804 17.4794118,21.5009804 C13.4647059,21.5009804 11.3029412,20.4029412 11.3029412,19.9637255 L11.3235294,19.9637255 L11.3235294,17.3421569 C12.7715686,18.1245098 15.2009804,18.5019608 17.5,18.5019608 C19.7990196,18.5019608 22.2078431,18.1313725 23.6764706,17.3558824 L23.6558824,19.9637255 Z M23.6558824,15.5921569 C23.6558824,16.0382353 21.4941176,17.1362745 17.4794118,17.1362745 C13.4647059,17.1362745 11.3029412,16.0382353 11.3029412,15.5921569 L11.3235294,15.5921569 L11.3235294,12.9156863 C12.7852941,13.6911765 15.1872549,14.0480392 17.5,14.0480392 C19.8127451,14.0480392 22.2421569,13.677451 23.6764706,12.8882353 L23.6558824,15.5921569 Z" id="Shape"></path>
                <path d="M2.68333333,33.2911765 L7.20588235,33.2911765 L7.20588235,34.6637255 L1.02941176,34.6637255 C0.650392819,34.6637255 0.343137255,34.3564699 0.343137255,33.977451 L0.343137255,27.8009804 L1.71568627,27.8009804 L1.71568627,32.3098039 L6.8627451,27.1696078 L7.82352941,28.1372549 L2.68333333,33.2911765 Z" id="Path"></path>
                <path d="M34.6568627,27.8009804 L34.6568627,33.977451 C34.6568627,34.3564699 34.3496072,34.6637255 33.9705882,34.6637255 L27.7941176,34.6637255 L27.7941176,33.2911765 L32.3166667,33.2911765 L27.245098,28.2058824 L28.2127451,27.245098 L33.2843137,32.3098039 L33.2843137,27.8009804 L34.6568627,27.8009804 Z" id="Path"></path>
                <path d="M34.6568627,1.03627451 L34.6568627,7.2127451 L33.2843137,7.2127451 L33.2843137,2.68333333 L28.2127451,7.75490196 L27.245098,6.7872549 L32.3098039,1.72254902 L27.7941176,1.72254902 L27.7941176,0.35 L33.9705882,0.35 C34.3496072,0.35 34.6568627,0.657255564 34.6568627,1.03627451 Z" id="Path"></path>
                <path d="M7.82352941,6.8627451 L6.8627451,7.82352941 L1.71568627,2.68333333 L1.71568627,7.19901961 L0.343137255,7.19901961 L0.343137255,1.02254902 C0.343137255,0.643530074 0.650392819,0.33627451 1.02941176,0.33627451 L7.20588235,0.33627451 L7.20588235,1.70882353 L2.68333333,1.70882353 L7.82352941,6.8627451 Z" id="Path"></path>
                <path d="M6.97254902,23.6490196 C2.77941176,22.1392157 0.37745098,19.8333333 0.37745098,17.3284314 C0.37745098,14.8235294 2.77941176,12.5245098 6.97254902,11.0078431 L7.43921569,12.2980392 C3.87745098,13.5813725 1.75,15.4617647 1.75,17.3284314 C1.75,19.195098 3.87745098,21.0754902 7.43921569,22.3588235 L6.97254902,23.6490196 Z" id="Path"></path>
                <path d="M27.6431373,23.8 L27.2039216,22.4960784 C31.0127451,21.2127451 33.2843137,19.277451 33.2843137,17.3284314 C33.2843137,15.3794118 31.0127451,13.4441176 27.2039216,12.1539216 L27.6431373,10.8568627 C32.0970588,12.3529412 34.6568627,14.727451 34.6568627,17.3284314 C34.6568627,19.9294118 32.0970588,22.2901961 27.6431373,23.8 Z" id="Path"></path>
            </g>
        </g>
    </g>
</svg>