<?xml version="1.0" encoding="UTF-8"?>
<svg width="65px" height="65px" viewBox="0 0 65 65" version="1.1" xmlns="http://www.w3.org/2000/svg" xmlns:xlink="http://www.w3.org/1999/xlink">
    <!-- Generator: Sketch 63.1 (92452) - https://sketch.com -->
    <title>replicationgroup.icon</title>
    <desc>Created with Sketch.</desc>
    <defs>
        <linearGradient x1="-6.72052557%" y1="107.434923%" x2="106.86849%" y2="-7.67390704%" id="linearGradient-1">
            <stop stop-color="#00236E" offset="0%"></stop>
            <stop stop-color="#69CCE7" offset="100%"></stop>
        </linearGradient>
    </defs>
    <g id="replicationgroup.icon" stroke="none" stroke-width="1" fill="none" fill-rule="evenodd">
        <rect id="Rectangle" stroke="#00236E" fill="url(#linearGradient-1)" fill-rule="nonzero" x="0.5" y="0.5" width="65" height="64" rx="16"></rect>
        <g id="Group" transform="translate(14.000000, 14.000000)" fill="#FFFFFF">
            <g id="database">
                <path d="M11.5204545,26.3709096 C6.22272727,26.3709096 0.849318182,24.9581818 0.849318182,22.2672727 L0.849318182,4.11204545 L2.53113636,4.11204545 L2.53113636,22.2672727 C2.53113636,23.1081818 5.70136364,24.6806818 11.5120455,24.6806818 C11.7205767,24.6806818 14.9797874,24.6784231 15.1363636,24.6806818 C15.1363636,24.6806818 15.1363636,26.3709096 15.1363636,26.3709096 C14.9053098,26.3417999 11.6729235,26.3709096 11.5204545,26.3709096 Z" id="Path" fill-rule="nonzero"></path>
                <rect id="Rectangle" x="20.1818182" y="4.20454545" width="1.68181818" height="6.72727273"></rect>
                <path d="M17.4845037,13.1406663 C11.51625,14.5091719 5.69379217,13.1406663 1.25623113,11.4840754 C0.325523833,10.8656193 0.857727273,10.6024904 0.857727273,10.1665909 L2.53954545,10.1665909 C2.53954545,10.5365909 10.6312589,13.3518954 17.8208674,11.4840754 L17.4845037,13.1406663 Z" id="Path" fill-rule="nonzero"></path>
                <path d="M16.3695086,19.7922572 C12.2978849,21.22875 7.28363592,19.9081427 1.21968203,18.1356663 C0.350824669,17.5172102 0.847660653,17.2540813 0.847660653,16.8181818 L2.417714,16.8181818 C2.417714,17.1881818 9.9716945,20.0034863 16.6835192,18.1356663 L16.3695086,19.7922572 Z" id="Path-Copy" fill-rule="nonzero"></path>
                <path d="M11.3564127,8.40909091 C6.13178059,8.40909091 0.840909091,6.97171304 0.840909091,4.20884898 C0.840909091,1.44598493 6.13178059,0 11.3564127,0 C16.5810448,0 21.8636364,1.44598493 21.8636364,4.20884898 C21.8636364,6.97171304 16.5893247,8.40909091 11.3564127,8.40909091 Z M11.3564045,1.68181818 C5.63806526,1.68181818 2.52272727,3.34611742 2.52272727,4.20454545 C2.52272727,5.06297348 5.65459225,6.72727273 11.3564045,6.72727273 C17.0582167,6.72727273 20.1818182,5.06297348 20.1818182,4.20454545 C20.1818182,3.34611742 17.0830072,1.68181818 11.3564045,1.68181818 L11.3564045,1.68181818 Z" id="Shape" fill-rule="nonzero"></path>
            </g>
            <g id="database-R" transform="translate(15.136364, 9.250000)" fill-rule="nonzero">
                <path d="M10.6795455,26.3709091 C5.37340909,26.3709091 -9.11190315e-14,24.9581818 -9.11190315e-14,22.2672727 L-9.11190315e-14,16.2127273 C-9.11190315e-14,15.748306 0.376487824,15.3718182 0.840909091,15.3718182 C1.30533036,15.3718182 1.68181818,15.748306 1.68181818,16.2127273 C1.68181818,16.5827273 2.69090909,17.5665909 5.78545455,18.1888636 L5.44909091,19.8706818 C4.13165258,19.6452401 2.85942325,19.2079112 1.68181818,18.5756818 L1.68181818,22.2925 C1.68181818,23.1334091 4.86045455,24.7059091 10.6795455,24.7059091 C16.4986364,24.7059091 19.6604545,23.1081818 19.6604545,22.2925 L19.6604545,18.5420455 C18.777808,19.0338387 17.8291093,19.3963265 16.8434091,19.6184091 L16.4313636,17.9870455 C18.7859091,17.39 19.6604545,16.5827273 19.6604545,16.2127273 C19.6604545,15.748306 20.0369424,15.3718182 20.5013636,15.3718182 C20.9657849,15.3718182 21.3423122,15.748306 21.3423122,16.2127273 L21.3423122,22.2672727 C21.3590909,24.9581818 15.9940909,26.3709091 10.6795455,26.3709091 Z" id="Path"></path>
                <path d="M10.6795455,26.3709091 C5.38181818,26.3709091 0.00840909091,24.9581818 0.00840909091,22.2672727 L0.00840909091,4.11204545 L1.69022727,4.11204545 L1.69022727,22.2672727 C1.69022727,23.1081818 4.86045455,24.6806818 10.6711364,24.6806818 C16.4818182,24.6806818 19.6604545,23.0829545 19.6604545,22.2672727 L19.6604545,4.11204545 L21.3423612,4.11204545 L21.3423612,22.2672727 C21.3675,24.9581818 15.9940909,26.3709091 10.6795455,26.3709091 Z" id="Path"></path>
                <path d="M5.46590909,13.7909091 C1.95090909,13.0929545 0.0168181818,11.8063636 0.0168181818,10.1665909 L1.69863636,10.1665909 C1.69863636,10.5365909 2.69931818,11.5204545 5.80227273,12.1343182 L5.46590909,13.7909091 Z" id="Path"></path>
                <path d="M16.8602273,13.5722727 L16.4481818,11.9493182 C18.8027273,11.3522727 19.6772727,10.545 19.6772727,10.175 L21.3590909,10.175 C21.3590909,11.6297727 19.7613636,12.8406818 16.8602273,13.5722727 Z" id="Path"></path>
                <path d="M10.6795455,8.21568182 C5.37340909,8.21568182 -5.37751661e-14,6.81136364 -5.37751661e-14,4.11204545 C-5.37751661e-14,1.41272727 5.37340909,-1.49375461e-15 10.6795455,-1.49375461e-15 C15.9856818,-1.49375461e-15 21.3506818,1.41272727 21.3506818,4.11204545 C21.3506818,6.81136364 15.9940909,8.21568182 10.6795455,8.21568182 Z M10.6795455,1.69022727 C4.86045455,1.69022727 1.69022727,3.28795455 1.69022727,4.11204545 C1.69022727,4.93613636 4.87727273,6.53386364 10.6795455,6.53386364 C16.4818182,6.53386364 19.6604545,4.93613636 19.6604545,4.11204545 C19.6604545,3.28795455 16.5070455,1.69022727 10.6795455,1.69022727 L10.6795455,1.69022727 Z" id="Shape"></path>
                <path d="M7.13090909,21.6954545 L7.13090909,10.6627273 L11.2093182,10.6627273 C12.1511499,10.615711 13.0751401,10.9317338 13.7909091,11.5456818 C14.4428209,12.161366 14.7956182,13.0295542 14.7579545,13.9254545 C14.7741874,14.589409 14.5831359,15.2419233 14.2113636,15.7922727 C13.8174555,16.3431061 13.2664567,16.7622168 12.6304545,16.9947727 L15.4475,21.7038636 L13.5302273,21.7038636 L11.0075,17.3311364 L9.05659091,17.3311364 L9.05659091,21.7038636 L7.13090909,21.6954545 Z M9.05659091,15.8090909 L10.9654545,15.8090909 C11.4700896,15.8800687 11.9787599,15.7099007 12.339103,15.3495576 C12.6994462,14.9892144 12.8696141,14.4805441 12.7986364,13.9759091 C12.8769149,13.4789288 12.7165356,12.9741068 12.3657831,12.6134273 C12.0150307,12.2527479 11.51488,12.0783458 11.0159091,12.1427273 L9.05659091,12.1427273 L9.05659091,15.8090909 Z" id="Shape"></path>
            </g>
        </g>
    </g>
</svg>