<?xml version="1.0" encoding="UTF-8"?>
<svg width="65px" height="65px" viewBox="0 0 65 65" version="1.1" xmlns="http://www.w3.org/2000/svg" xmlns:xlink="http://www.w3.org/1999/xlink">
    <!-- Generator: Sketch 63.1 (92452) - https://sketch.com -->
    <title>s3bucketclass.icon</title>
    <desc>Created with Sketch.</desc>
    <defs>
        <linearGradient x1="-20.7066667%" y1="120.706667%" x2="120.706667%" y2="-20.7066667%" id="linearGradient-1">
            <stop stop-color="#1B660F" offset="0%"></stop>
            <stop stop-color="#6CAE3E" offset="100%"></stop>
        </linearGradient>
    </defs>
    <g id="s3bucketclass.icon" stroke="none" stroke-width="1" fill="none" fill-rule="evenodd">
        <g id="bucket-copy" fill-rule="nonzero">
            <rect id="Green_Gradient" stroke="#1B660F" fill="url(#linearGradient-1)" x="0" y="0" width="65" height="65" rx="16"></rect>
            <g id="Icon_Test" transform="translate(15.000000, 14.000000)" fill="#FFFFFF">
                <path d="M34.5726733,19.889858 C34.3632288,18.7559691 33.0776733,17.9543024 32.1965622,17.3837469 C31.9148955,17.2031913 31.1421177,16.9143024 31.0771177,16.6615246 C31.0726768,16.4806726 31.0970559,16.3002667 31.1493399,16.1270802 L31.8715622,10.9343024 C32.0810066,9.41041354 32.2832288,7.88652465 32.4926733,6.36263576 C32.680451,4.96152465 32.0087844,4.02263576 30.8676733,3.23541354 C28.5421177,1.62485798 25.5087844,0.974857982 22.7715622,0.527080204 C19.3388248,-0.0333685244 15.8480143,-0.147463167 12.3860066,0.18763576 C9.2722638,0.41611196 6.2161464,1.14782403 3.33656215,2.35430243 C1.79100659,3.07652465 -0.231215628,4.20319132 0.0215621503,6.17485798 C0.743784372,12.0393024 1.59600659,17.8893024 2.38322882,23.7465246 C2.74433993,26.4259691 3.10545104,29.1054135 3.46656215,31.784858 C3.5851971,32.84691 4.26294027,33.7643428 5.24322882,34.189858 C7.48211771,35.4031913 10.255451,35.749858 12.7543399,35.9809691 C16.076494,36.2810502 19.4239181,36.1328696 22.7065622,35.5404135 C24.7865622,35.1576358 28.6576733,34.5293024 28.9898955,31.9293024 C29.4015622,28.7081913 29.8565622,25.4870802 30.2898955,22.2731913 L30.4487844,21.2909691 C31.6260066,21.5726358 34.9843399,22.1720802 34.5726733,19.889858 Z M16.2426733,1.42985798 C20.5760066,1.42985798 25.5376733,1.92096909 29.4232288,4.05874687 C30.0226733,4.39096909 31.4165622,5.13485798 30.9976733,6.01596909 C30.5787844,6.8970802 29.2787844,7.33763576 28.4843399,7.65541354 C27.3499201,8.07445359 26.1832959,8.40052866 24.9960066,8.63041354 C19.8405773,9.65167745 14.5460705,9.76167413 9.35267326,8.95541354 C7.00761898,8.71359724 4.72646922,8.04540638 2.62156215,6.98374687 C2.10156215,6.68763576 1.24211771,6.15319132 1.48045104,5.44541354 C1.66923235,5.06513505 1.96557729,4.74869892 2.33267326,4.53541354 C3.91901577,3.51523811 5.68296949,2.80230682 7.53267326,2.43374687 C10.3848917,1.74905102 13.3094773,1.4119719 16.2426733,1.42985798 L16.2426733,1.42985798 Z M27.5671177,31.8715246 C27.4587844,32.7165246 26.0648955,33.1354135 25.400451,33.3737469 C24.0210146,33.8351707 22.5980865,34.1546036 21.1537844,34.3270802 C17.9491821,34.7531705 14.7022756,34.7531705 11.4976733,34.3270802 C9.49055156,34.1713667 7.53058996,33.6397271 5.71989548,32.759858 C5.21742507,32.5414477 4.88177744,32.0575557 4.85322882,31.5104135 C4.13100659,25.7831913 3.30767326,20.0559691 2.53489548,14.3287469 L1.69711771,8.11763576 C3.3390018,9.02390159 5.12104966,9.64883892 6.96933993,9.96652465 C8.94895143,10.369397 10.9544611,10.6324542 12.9710066,10.7537469 C16.9286541,11.03735 20.9063019,10.8165044 24.8082288,10.0965246 C26.8873137,9.79749581 28.8957253,9.12720983 30.7376733,8.11763576 L29.2065622,19.4565246 C25.5467339,18.2507688 21.9710782,16.8031349 18.5032288,15.1231913 C18.351077,15.0651187 18.2037645,14.9950849 18.0626733,14.9137469 C17.8676733,14.7693024 17.9182288,14.8415246 17.8243399,14.6176358 C17.6437844,14.2059691 17.600451,13.8954135 17.2176733,13.5559691 C16.6492669,13.1007248 15.8473964,13.0792283 15.2554156,13.503365 C14.6634349,13.9275016 14.4259167,14.6936893 14.6741848,15.3783031 C14.9224529,16.0629169 15.5958756,16.4987612 16.3221177,16.444858 C16.5710722,16.4035539 16.813761,16.3307473 17.0443399,16.2281913 C17.3260066,16.1415246 17.3260066,16.1559691 17.6221177,16.2931913 C21.1345453,18.0059165 24.753063,19.4919211 28.455451,20.7420802 C29.0115622,20.9226358 29.0043399,20.7420802 29.0043399,21.2043024 C28.9808824,21.5559362 28.9350489,21.9057185 28.8671177,22.2515246 L28.4048955,25.6965246 L27.5671177,31.8715246 Z M16.4232288,14.7909691 C16.4232288,14.9859691 16.1487844,14.9643024 16.0765622,14.8415246 C16.0043399,14.7187469 16.4232288,14.5165246 16.4232288,14.7909691 Z M30.6510066,19.8465246 L30.8676733,18.2504135 C31.5898955,18.6620802 32.8176733,19.2831913 33.1426733,20.1065246 C32.4348955,20.3954135 31.315451,20.0126358 30.6510066,19.8465246 Z" id="Shape"></path>
            </g>
        </g>
    </g>
</svg>