<?xml version="1.0" encoding="UTF-8"?>
<svg width="65px" height="65px" viewBox="0 0 65 65" version="1.1" xmlns="http://www.w3.org/2000/svg" xmlns:xlink="http://www.w3.org/1999/xlink">
    <!-- Generator: Sketch 63.1 (92452) - https://sketch.com -->
    <title>routetable.icon</title>
    <desc>Created with Sketch.</desc>
    <defs>
        <linearGradient x1="0%" y1="99.4662525%" x2="100%" y2="1.50367309%" id="linearGradient-1">
            <stop stop-color="#D0860C" offset="0%"></stop>
            <stop stop-color="#F1B500" offset="100%"></stop>
        </linearGradient>
        <polygon id="path-2" points="0 0 40 0 40 39.9998947 0 39.9998947"></polygon>
    </defs>
    <g id="routetable.icon" stroke="none" stroke-width="1" fill="none" fill-rule="evenodd">
        <rect id="Rectangle" stroke="#D0860C" fill="url(#linearGradient-1)" fill-rule="nonzero" x="0.5" y="0.5" width="65" height="64" rx="16"></rect>
        <g id="Group-6" transform="translate(13.000000, 13.000000)">
            <g id="Group-3">
                <mask id="mask-3" fill="white">
                    <use xlink:href="#path-2"></use>
                </mask>
                <g id="Clip-2"></g>
                <path d="M20,37.4588421 L2.54105263,19.9998947 L20,2.54094737 L37.4589474,19.9998947 L20,37.4588421 Z M39.6915789,19.2556842 L20.7442105,0.308315789 C20.3326316,-0.103263158 19.6673684,-0.103263158 19.2557895,0.308315789 L0.308421053,19.2556842 C-0.103157895,19.6672632 -0.103157895,20.3325263 0.308421053,20.7441053 L19.2557895,39.6914737 C19.4610526,39.8967368 19.7305263,39.9998947 20,39.9998947 C20.2694737,39.9998947 20.5389474,39.8967368 20.7442105,39.6914737 L39.6915789,20.7441053 C40.1031579,20.3325263 40.1031579,19.6672632 39.6915789,19.2556842 L39.6915789,19.2556842 Z" id="Fill-1" fill="#FFFFFF" mask="url(#mask-3)"></path>
            </g>
            <path d="M19.2557895,9.17863158 L16.8515789,11.5828421 C16.44,11.9933684 16.44,12.6596842 16.8515789,13.0712632 C17.0568421,13.2765263 17.3263158,13.3796842 17.5957895,13.3796842 C17.8652632,13.3796842 18.1347368,13.2765263 18.34,13.0712632 L18.9473684,12.4638947 L18.9473684,20.0954737 C18.2557895,19.6596842 17.4421053,19.3965263 16.5652632,19.3965263 L12.7578947,19.3965263 L13.3642105,18.7902105 C13.7757895,18.3786316 13.7757895,17.7123158 13.3642105,17.3017895 C12.9536842,16.8902105 12.2873684,16.8902105 11.8757895,17.3017895 L9.47368421,19.7049474 C9.37578947,19.8017895 9.29894737,19.9175789 9.24526316,20.0470526 C9.13894737,20.3038947 9.13894737,20.5944211 9.24526316,20.8512632 C9.29894737,20.9807368 9.37578947,21.0965263 9.47368421,21.1944211 L11.8757895,23.5965263 C12.0821053,23.8028421 12.3505263,23.9049474 12.62,23.9049474 C12.8894737,23.9049474 13.1589474,23.8028421 13.3642105,23.5965263 C13.7757895,23.186 13.7757895,22.5196842 13.3642105,22.1081053 L12.7578947,21.5017895 L16.5652632,21.5017895 C17.8789474,21.5017895 18.9473684,22.5702105 18.9473684,23.8838947 L18.9473684,29.6775789 L18.9473684,30.0775789 C18.9473684,30.6586316 19.4178947,31.1302105 20,31.1302105 C20.5821053,31.1302105 21.0526316,30.6586316 21.0526316,30.0775789 L21.0526316,29.6775789 L21.0526316,23.8838947 C21.0526316,22.5702105 22.1210526,21.5017895 23.4347368,21.5017895 L27.2410526,21.5017895 L26.6347368,22.1081053 C26.2231579,22.5196842 26.2231579,23.186 26.6347368,23.5965263 C26.84,23.8028421 27.1094737,23.9049474 27.3789474,23.9049474 C27.6484211,23.9049474 27.9178947,23.8028421 28.1231579,23.5965263 L30.5252632,21.1944211 C30.6231579,21.0965263 30.7,20.9807368 30.7536842,20.8512632 C30.86,20.5944211 30.86,20.3038947 30.7536842,20.0470526 C30.7,19.9175789 30.6231579,19.8017895 30.5252632,19.7049474 L28.1242105,17.3017895 C27.7126316,16.8902105 27.0463158,16.8902105 26.6357895,17.3017895 C26.2242105,17.7123158 26.2242105,18.3786316 26.6357895,18.7902105 L27.2421053,19.3965263 L23.4347368,19.3965263 C22.5578947,19.3965263 21.7442105,19.6596842 21.0526316,20.0954737 L21.0526316,12.4649474 L21.6578947,13.0702105 C22.0694737,13.4817895 22.7357895,13.4817895 23.1463158,13.0702105 C23.5578947,12.6596842 23.5578947,11.9933684 23.1463158,11.5817895 L20.7442105,9.17863158 C20.5473684,8.98178947 20.28,8.87021053 20,8.87021053 C19.72,8.87021053 19.4526316,8.98178947 19.2557895,9.17863158" id="Fill-4" fill="#FFFFFF"></path>
        </g>
    </g>
</svg>