<?xml version="1.0" encoding="UTF-8"?>
<svg width="65px" height="65px" viewBox="0 0 65 65" version="1.1" xmlns="http://www.w3.org/2000/svg" xmlns:xlink="http://www.w3.org/1999/xlink">
    <!-- Generator: Sketch 63.1 (92452) - https://sketch.com -->
    <title>vpc.icon</title>
    <desc>Created with Sketch.</desc>
    <defs>
        <linearGradient x1="-20.7066667%" y1="120.706667%" x2="120.706667%" y2="-20.7066667%" id="linearGradient-1">
            <stop stop-color="#4D27A8" offset="0%"></stop>
            <stop stop-color="#A166FF" offset="100%"></stop>
        </linearGradient>
    </defs>
    <g id="vpc.icon" stroke="none" stroke-width="1" fill="none" fill-rule="evenodd">
        <g id="download" fill-rule="nonzero">
            <rect id="Purple_Gradient" stroke="#4D27A8" fill="url(#linearGradient-1)" x="0.5" y="0.5" width="64" height="64" rx="16"></rect>
            <g id="Icon_Test" transform="translate(15.000000, 16.000000)" fill="#FFFFFF">
                <path d="M16.772549,23.0039216 L7.16470588,23.0039216 C3.40392157,23.0039216 0.528431373,20.4921569 0.33627451,17.0401961 C0.33627451,16.8960784 0.33627451,16.7313725 0.33627451,16.5666667 C0.215948624,13.617375 2.14866917,10.9758954 4.99607843,10.1980392 C4.99607843,10.0127451 4.99607843,9.83431373 4.99607843,9.64901961 C5.06685635,5.87105454 7.40212023,2.50611257 10.916561,1.11804352 C14.4310018,-0.270025525 18.4353635,0.59100794 21.0686275,3.30098039 C21.9667157,4.18988108 22.6967502,5.23378397 23.2235294,6.38235294 C23.9764699,5.77744843 24.9135815,5.44812757 25.8794118,5.44901961 C27.8696078,5.44901961 29.9970588,6.86960784 30.3470588,10.0333333 C32.0382473,10.3678899 33.5639797,11.2712204 34.6705882,12.5931373 L33.5931373,13.4372549 C32.5655443,12.2615819 31.1512308,11.4923512 29.6058824,11.2686275 C29.287718,11.2176016 29.0479022,10.9520912 29.0294118,10.6303922 C28.8715686,8.00196078 27.3343137,6.82156863 25.8794118,6.82156863 C24.9532498,6.83018179 24.0845958,7.27212859 23.5323529,8.01568627 C23.3821906,8.21583129 23.1350004,8.31838892 22.8872549,8.28333333 C22.6383986,8.24533264 22.4303227,8.07413092 22.345098,7.8372549 C21.8752905,6.5031595 21.1132519,5.290932 20.1147059,4.28921569 C17.8734179,1.98324951 14.4687058,1.24450401 11.4732734,2.41422036 C8.47784099,3.58393672 6.47472946,6.43443736 6.38921569,9.64901961 C6.39020293,9.97688291 6.40852918,10.3044646 6.44411765,10.6303922 C6.47829888,10.9689113 6.25928785,11.2813671 5.92941176,11.3647059 C4.37156863,11.7490196 1.74313725,12.9431373 1.74313725,16.5666667 C1.73628333,16.690101 1.73628333,16.8138206 1.74313725,16.9372549 C1.89411765,19.6823529 4.19313725,21.6313725 7.23333333,21.6313725 L16.8411765,21.6313725 L16.772549,23.0039216 Z" id="Path"></path>
                <path d="M26.3803922,33.1196078 C18.2411765,33.1196078 18.1450944,23.9715686 18.1450944,23.8823529 L18.1450944,15.5303922 C18.1441652,15.2432051 18.3221521,14.9858086 18.5911765,14.8852941 L26.1401961,12.0921569 C26.295613,12.0372087 26.4651713,12.0372087 26.6205882,12.0921569 L34.1696078,14.8852941 C34.4386322,14.9858086 34.6166192,15.2432051 34.6156899,15.5303922 L34.6156899,24.3970588 C34.6156899,24.4862745 34.5196078,33.1196078 26.3803922,33.1196078 Z M19.5176471,16.0107843 L19.5176471,23.8823529 C19.5176471,24.204902 19.6137255,31.7470588 26.3803922,31.7470588 C33.1470588,31.7470588 33.2431373,24.6990196 33.2431373,24.3970588 L33.2431373,16.0107843 L26.3803922,13.4647059 L19.5176471,16.0107843 Z" id="Shape"></path>
                <path d="M26.3803922,30.5529412 C22.0156863,30.5529412 20.945098,25.0147059 20.8901961,24.7813725 C20.8834124,24.7404755 20.8834124,24.6987402 20.8901961,24.6578431 L20.8901961,17.5480392 C20.8899238,17.2668013 21.0612699,17.0138619 21.322549,16.9098039 L26.1264706,15.0156863 C26.2895239,14.950748 26.4712605,14.950748 26.6343137,15.0156863 L31.4382353,16.9098039 C31.6995144,17.0138619 31.8708605,17.2668013 31.8705882,17.5480392 L31.8705882,24.6578431 C31.8739629,24.6989505 31.8739629,24.7402652 31.8705882,24.7813725 C31.8156863,25.0147059 30.745098,30.5529412 26.3803922,30.5529412 Z M22.2627451,24.5892157 C22.372549,25.1107843 23.3539216,29.1803922 26.3803922,29.1803922 C29.4068627,29.1803922 30.3882353,25.1176471 30.4980392,24.5892157 L30.4980392,18.0147059 L26.3803922,16.395098 L22.2627451,18.0147059 L22.2627451,24.5892157 Z" id="Shape"></path>
            </g>
        </g>
    </g>
</svg>