<?xml version="1.0" encoding="UTF-8"?>
<svg width="65px" height="65px" viewBox="0 0 65 65" version="1.1" xmlns="http://www.w3.org/2000/svg" xmlns:xlink="http://www.w3.org/1999/xlink">
    <!-- Generator: Sketch 63.1 (92452) - https://sketch.com -->
    <title>internetgateway.icon</title>
    <desc>Created with Sketch.</desc>
    <defs>
        <linearGradient x1="-6.72052557%" y1="107.434923%" x2="106.86849%" y2="-7.67390704%" id="linearGradient-1">
            <stop stop-color="#009BCA" offset="0%"></stop>
            <stop stop-color="#30EDCA" offset="100%"></stop>
        </linearGradient>
    </defs>
    <g id="internetgateway.icon" stroke="none" stroke-width="1" fill="none" fill-rule="evenodd">
        <rect id="Rectangle" stroke="#009BCA" fill="url(#linearGradient-1)" fill-rule="nonzero" x="0.5" y="0.5" width="65" height="64" rx="16"></rect>
        <g id="download" transform="translate(12.000000, 20.000000)" fill="#FFFFFF" fill-rule="nonzero">
            <path d="M32,24.8833333 L8,24.8833333 C3.83333333,24.8833333 0.65,22.1083333 0.433333333,18.2833333 C0.433333333,18.1083333 0.433333333,17.9333333 0.433333333,17.7583333 C0.303851793,14.5189244 2.41310942,11.6135255 5.53333333,10.7333333 C5.53333333,10.5583333 5.53333333,10.3833333 5.53333333,10.2 C5.53333333,10.0166667 5.53333333,9.925 5.53333333,9.78333333 L5.53333333,9.78333333 C5.78862227,5.7023804 8.42444479,2.15501854 12.2581159,0.732937417 C16.0917871,-0.689143703 20.4033942,0.281103914 23.2583333,3.20833333 C24.2390185,4.16446895 25.0331061,5.29484267 25.6,6.54166667 C26.4258788,5.91092581 27.4358144,5.56842588 28.475,5.56666667 C30.6833333,5.56666667 33,7.125 33.475,10.5666667 C37.45,11.5666667 39.625,14.1333333 39.625,17.8333333 C39.5833333,22.375 36.8916667,24.8833333 32,24.8833333 Z M15.8333333,1.79163831 C14.6111946,1.79802911 13.4022034,2.04435752 12.275,2.51666667 C9.26238592,3.91283062 7.288424,6.88182391 7.16666667,10.2 C7.1678592,10.548249 7.1901221,10.8961068 7.23333333,11.2416667 C7.28370631,11.6586919 7.01582196,12.0480172 6.60833333,12.15 C4.94166667,12.575 2.08333333,13.8583333 2.08333333,17.7583333 C2.08333333,17.9083333 2.08333333,18.05 2.08333333,18.1916667 C2.24166667,21.1 4.725,23.1916667 7.98333333,23.1916667 L32,23.1916667 C35.9833333,23.1916667 37.9166667,21.425 37.9166667,17.7916667 C37.9166667,14.7 36.0916667,12.75 32.4916667,12.0166667 C32.1213422,11.9417873 31.8477311,11.6271345 31.825,11.25 C31.65,8.24166667 29.9,7.175 28.4916667,7.175 C27.5045905,7.18480723 26.5791923,7.65676036 25.9916667,8.45 C25.8070729,8.69025642 25.506623,8.81139379 25.2070059,8.76636463 C24.9073888,8.72133548 24.6558185,8.51723553 24.55,8.23333333 C24.0458251,6.77991421 23.2131186,5.46241281 22.1166667,4.38333333 C20.4501483,2.71833156 18.1890665,1.7857103 15.8333333,1.79163831 Z" id="Shape"></path>
            <path d="M15.5583333,20.9416667 L14.4083333,19.7416667 C17.2735493,17.0097626 21.7476296,16.9086534 24.7333333,19.5083333 L23.6416667,20.7666667 C22.5470241,19.8184748 21.1482054,19.2950268 19.7,19.2916667 C18.1581077,19.2858626 16.6738334,19.8771831 15.5583333,20.9416667 L15.5583333,20.9416667 Z" id="Path"></path>
            <path d="M13.3333333,18.5833333 L12.1666667,17.375 C16.2524862,13.4909924 22.6216075,13.3502583 26.875,17.05 L25.775,18.3333333 C22.1817452,15.201545 16.7978796,15.3097272 13.3333333,18.5833333 L13.3333333,18.5833333 Z" id="Path"></path>
            <path d="M11.0666667,16.2166667 L9.91666667,15 C15.2166799,9.94835599 23.492972,9.7677298 29.0083333,14.5833333 L27.9166667,15.8333333 C23.0497371,11.581305 15.7440231,11.7402819 11.0666667,16.2 L11.0666667,16.2166667 Z" id="Path"></path>
        </g>
    </g>
</svg>