<?xml version="1.0" encoding="UTF-8"?>
<svg width="65px" height="65px" viewBox="0 0 65 65" version="1.1" xmlns="http://www.w3.org/2000/svg" xmlns:xlink="http://www.w3.org/1999/xlink">
    <!-- Generator: Sketch 58 (84663) - https://sketch.com -->
    <title>Application Icons/AWS/65x65</title>
    <desc>Created with Sketch.</desc>
    <g id="Application-Icons/AWS/65x65" stroke="none" stroke-width="1" fill="none" fill-rule="evenodd">
        <rect id="Rectangle-Copy-13" stroke="#D8D8DA" fill="#FAFAFA" fill-rule="nonzero" x="0.5" y="0.5" width="64" height="64" rx="16"></rect>
        <g id="Group" transform="translate(11.000000, 19.500000)">
            <path d="M12.2463656,10.468997 C12.2463656,11.0331814 12.3027902,11.4906282 12.4015332,11.8260892 C12.5143824,12.1615502 12.6554439,12.5275076 12.85293,12.9239615 C12.9234608,13.0459473 12.9516731,13.1679331 12.9516731,13.2746707 C12.9516731,13.427153 12.8670362,13.5796353 12.6836562,13.7321175 L11.7949687,14.3725431 C11.6680134,14.4640324 11.540917,14.5097771 11.4282088,14.5097771 C11.2871473,14.5097771 11.1460858,14.433536 11.0050243,14.2963019 C10.8075382,14.0675785 10.6382644,13.8236069 10.4972029,13.5796353 C10.3561414,13.3204154 10.2150799,13.0306991 10.0599123,12.6799899 C8.95949152,14.0828267 7.57722988,14.7842452 5.91270417,14.7842452 C4.72778756,14.7842452 3.78267551,14.4182877 3.09147415,13.6863728 C2.4002728,12.954458 2.04761905,11.9785714 2.04761905,10.7587133 C2.04761905,9.46261398 2.47066249,8.41048632 3.3312787,7.61757852 C4.19175386,6.82467072 5.33435201,6.42821682 6.78728547,6.42821682 C7.26675351,6.42821682 7.76060983,6.4739615 8.28253738,6.55020263 C8.80446493,6.62644377 9.34049864,6.74842958 9.90474464,6.88566363 L9.90474464,5.77254306 C9.90474464,4.61367781 9.67904624,3.80552178 9.24175559,3.33282675 C8.79035878,2.86013171 8.02862668,2.63140831 6.94245312,2.63140831 C6.44873787,2.63140831 5.94091647,2.69240122 5.41898892,2.82963526 C4.89706136,2.9668693 4.38923996,3.1345998 3.89552471,3.34807497 C3.66982631,3.45481256 3.50055251,3.51580547 3.40180945,3.54630193 C3.3030664,3.57679838 3.23253565,3.59204661 3.17596999,3.59204661 C2.97862495,3.59204661 2.8798819,3.43956434 2.8798819,3.11935157 L2.8798819,2.37218845 C2.8798819,2.12821682 2.9080942,1.9452381 2.97862495,1.83850051 C3.0491557,1.73176292 3.17596999,1.62502533 3.37359715,1.51828774 C3.86717135,1.24381966 4.45977071,1.01509625 5.15097206,0.832117528 C5.84217342,0.633890578 6.57569322,0.542401216 7.35153148,0.542401216 C9.03016333,0.542401216 10.2573984,0.954103343 11.0473428,1.7775076 C11.823181,2.60091185 12.2181533,3.85126646 12.2181533,5.52857143 L12.2181533,10.468997 L12.2463656,10.468997 Z M6.51926862,12.7867275 C6.98477157,12.7867275 7.46423961,12.6952381 7.97220208,12.5122594 C8.48002348,12.3292806 8.93142028,11.9938197 9.31228634,11.5363728 C9.53798474,11.2466565 9.70711748,10.9264438 9.79189544,10.5604863 C9.87653234,10.1945289 9.93295694,9.75233029 9.93295694,9.23389058 L9.93295694,8.59346505 C9.52387859,8.48672746 9.08658793,8.3952381 8.63519113,8.33424519 C8.18379433,8.27325228 7.74650368,8.24275583 7.30921303,8.24275583 C6.36410097,8.24275583 5.67289962,8.44098278 5.20739666,8.8526849 C4.74189371,9.26438703 4.51619531,9.84381966 4.51619531,10.606231 C4.51619531,11.3228977 4.68546911,11.8565856 5.03812286,12.2225431 C5.37667047,12.6037487 5.87038572,12.7867275 6.51926862,12.7867275 Z M17.8465071,14.433536 C17.5925964,14.433536 17.4233226,14.3877913 17.3104734,14.2810537 C17.1976242,14.1895643 17.0988812,13.9760892 17.0142443,13.6863728 L13.699299,1.89949341 C13.614521,1.59452888 13.5723437,1.39630193 13.5723437,1.28956434 C13.5723437,1.04559271 13.6850518,0.908358663 13.9108913,0.908358663 L15.293294,0.908358663 C15.5611698,0.908358663 15.7446908,0.954103343 15.8434338,1.06084093 C15.956283,1.15233029 16.0409199,1.36580547 16.1255568,1.65552178 L18.49539,11.749848 L20.6958084,1.65552178 C20.7664802,1.35055724 20.850976,1.15233029 20.9639663,1.06084093 C21.0768155,0.96935157 21.2741605,0.908358663 21.5282123,0.908358663 L22.6567043,0.908358663 C22.9245801,0.908358663 23.1081011,0.954103343 23.2209503,1.06084093 C23.3337995,1.15233029 23.4325426,1.36580547 23.4889672,1.65552178 L25.7175978,11.8718338 L28.1581028,1.65552178 C28.2427397,1.35055724 28.3414828,1.15233029 28.4402258,1.06084093 C28.553075,0.96935157 28.736455,0.908358663 28.9903657,0.908358663 L30.3022376,0.908358663 C30.527936,0.908358663 30.6548914,1.03034448 30.6548914,1.28956434 C30.6548914,1.36580547 30.6407852,1.44204661 30.6266791,1.53353597 C30.6124319,1.62502533 30.5843606,1.74701114 30.527936,1.91474164 L27.1283539,13.7016211 C27.0435759,14.0065856 26.9448329,14.2048126 26.8319837,14.2963019 C26.7192755,14.3877913 26.5358956,14.4487842 26.296091,14.4487842 L25.0828211,14.4487842 C24.8149453,14.4487842 24.6315653,14.4030395 24.5185751,14.2963019 C24.4057259,14.1895643 24.3069828,13.9913374 24.2506993,13.6863728 L22.064246,3.85126646 L19.8918989,13.6711246 C19.8212271,13.9760892 19.7367312,14.1743161 19.623882,14.2810537 C19.5110328,14.3877913 19.3135467,14.433536 19.059636,14.433536 L17.8465071,14.433536 Z M35.97291,14.8452381 C35.2393902,14.8452381 34.5058704,14.7537487 33.8005629,14.57077 C33.0952554,14.3877913 32.5451155,14.1895643 32.1783556,13.9608409 C31.9526572,13.8236069 31.7973485,13.6711246 31.741065,13.5338906 C31.6846404,13.3966565 31.6564281,13.2441743 31.6564281,13.1069402 L31.6564281,12.3292806 C31.6564281,12.0090679 31.7692773,11.8565856 31.9808695,11.8565856 C32.0655064,11.8565856 32.1500022,11.8718338 32.2346391,11.9023303 C32.3194171,11.9328267 32.4462314,11.9938197 32.587434,12.0548126 C33.066902,12.283536 33.5889706,12.4665147 34.1389694,12.5885005 C34.7033565,12.7104863 35.2533553,12.7714792 35.8177423,12.7714792 C36.7064298,12.7714792 37.3976311,12.6037487 37.8770992,12.2682877 C38.3568493,11.9328267 38.61076,11.4448835 38.61076,10.8197062 C38.61076,10.3927558 38.4838047,10.0420466 38.2297529,9.75233029 C37.9759833,9.46261398 37.4963742,9.20339412 36.8050318,8.95942249 L34.7597811,8.27325228 C33.7300321,7.92254306 32.9683,7.40410334 32.5027971,6.71793313 C32.0372941,6.04701114 31.7973485,5.29984802 31.7973485,4.50694022 C31.7973485,3.86651469 31.9244449,3.30233029 32.1783556,2.81438703 C32.4321252,2.32644377 32.7708139,1.89949341 33.1939984,1.56403242 C33.6171829,1.2133232 34.096792,0.954103343 34.661038,0.77112462 C35.225284,0.588145897 35.8177423,0.511904762 36.4384129,0.511904762 C36.7486072,0.511904762 37.0731897,0.527152989 37.3833839,0.57289767 C37.7079664,0.618642351 38.0040545,0.679635258 38.3002837,0.740628166 C38.5824067,0.816869301 38.8504235,0.893110436 39.1044753,0.984599797 C39.3582449,1.07608916 39.5558721,1.16757852 39.6969336,1.25906788 C39.8944197,1.3810537 40.0354812,1.50303951 40.1201181,1.64027356 C40.204755,1.76225937 40.2470734,1.92998987 40.2470734,2.14346505 L40.2470734,2.86013171 C40.2470734,3.18034448 40.1342242,3.34807497 39.922632,3.34807497 C39.8097828,3.34807497 39.6264028,3.28708207 39.3865983,3.16509625 C38.5825477,2.76864235 37.6797541,2.5704154 36.6782175,2.5704154 C35.8741669,2.5704154 35.2393902,2.70764944 34.8020995,2.99736575 C34.3648089,3.28708207 34.1391105,3.72928065 34.1391105,4.35445795 C34.1391105,4.78140831 34.280172,5.14736575 34.562295,5.43708207 C34.844418,5.72679838 35.3663455,6.01651469 36.1139715,6.27573455 L38.1170448,6.96190476 C39.1326876,7.31261398 39.8662074,7.80055724 40.303498,8.42573455 C40.7407887,9.05091185 40.952381,9.76757852 40.952381,10.5604863 C40.952381,11.2161601 40.8254256,11.8108409 40.5856211,12.3292806 C40.3317103,12.8477204 39.9931627,13.3051672 39.5558721,13.6711246 C39.1185814,14.0523303 38.5966539,14.3267984 37.9900894,14.5250253 C37.3553127,14.7385005 36.6923236,14.8452381 35.97291,14.8452381 L35.97291,14.8452381 Z" id="Fill-1" fill="#252F3E"></path>
            <path d="M38.875507,21.5059372 C34.1703703,25.1803423 27.3343358,27.1309524 21.4566332,27.1309524 C13.2190686,27.1309524 5.79667959,23.9101776 0.190559223,18.5573405 C-0.252924942,18.1339523 0.147655241,17.559354 0.676804357,17.8920161 C6.74056721,21.6117843 14.2200185,23.8648145 21.9571796,23.8648145 C27.1771642,23.8648145 32.9119965,22.7156179 38.1891863,20.3567405 C38.9757593,19.9787153 39.6479217,20.9010968 38.875507,21.5059372 Z M40.8349319,19.1470599 C40.2341331,18.3305254 36.8591629,18.7539136 35.3289208,18.9504867 C34.8711353,19.0109708 34.7996287,18.5875825 35.2145102,18.2700414 C37.9031598,16.2740682 42.3221269,16.8486666 42.8371178,17.5139909 C43.3519655,18.1944363 42.6941045,22.866828 40.1769278,25.1047372 C39.790935,25.4525204 39.4191005,25.2710683 39.5905734,24.8174381 C40.1626265,23.3204582 41.4355877,19.9484733 40.8349319,19.1470599 L40.8349319,19.1470599 Z" id="Fill-2" fill="#FF9900"></path>
        </g>
    </g>
</svg>